<svg width="21" height="21" viewBox="0 0 21 21" fill="none" xmlns="http://www.w3.org/2000/svg">
<path d="M14.875 18.5938H6.125C2.93125 18.5938 1.09375 16.7563 1.09375 13.5625V7.4375C1.09375 4.24375 2.93125 2.40625 6.125 2.40625H14.875C18.0688 2.40625 19.9062 4.24375 19.9062 7.4375V13.5625C19.9062 16.7563 18.0688 18.5938 14.875 18.5938ZM6.125 3.71875C3.6225 3.71875 2.40625 4.935 2.40625 7.4375V13.5625C2.40625 16.065 3.6225 17.2812 6.125 17.2812H14.875C17.3775 17.2812 18.5938 16.065 18.5938 13.5625V7.4375C18.5938 4.935 17.3775 3.71875 14.875 3.71875H6.125Z" fill="#424242"/>
<path d="M10.4998 11.2615C9.76481 11.2615 9.02106 11.034 8.45231 10.5702L5.71355 8.38272C5.43355 8.15522 5.38106 7.74397 5.60856 7.46397C5.83606 7.18397 6.24731 7.13147 6.52731 7.35897L9.26605 9.54647C9.93105 10.0802 11.0598 10.0802 11.7248 9.54647L14.4636 7.35897C14.7436 7.13147 15.1636 7.17522 15.3823 7.46397C15.6098 7.74397 15.5661 8.16397 15.2773 8.38272L12.5386 10.5702C11.9786 11.034 11.2348 11.2615 10.4998 11.2615Z" fill="#424242"/>
</svg>
