<svg width="21" height="21" viewBox="0 0 21 21" fill="none" xmlns="http://www.w3.org/2000/svg">
<path d="M10.5 0C4.70096 0 0 4.70096 0 10.5C0 16.299 4.70096 21 10.5 21C16.299 21 21 16.299 21 10.5C21 4.70096 16.299 0 10.5 0Z" fill="#40B3E0"/>
<path d="M15.6091 6.04014L13.7336 15.4958C13.7336 15.4958 13.4714 16.1516 12.7501 15.8368L8.42229 12.5188L6.8486 11.7582L4.19948 10.8664C4.19948 10.8664 3.79293 10.7222 3.75356 10.4074C3.71418 10.0927 4.21261 9.92219 4.21261 9.92219L14.7434 5.7911C14.7434 5.7911 15.609 5.4108 15.609 6.04031" fill="white"/>
<path d="M8.08977 15.3894C8.08977 15.3894 7.96344 15.3776 7.80594 14.8791C7.64868 14.3808 6.84863 11.7579 6.84863 11.7579L13.2092 7.71872C13.2092 7.71872 13.5764 7.49576 13.5633 7.71872C13.5633 7.71872 13.6288 7.7581 13.4321 7.94168C13.2354 8.12535 8.43553 12.4399 8.43553 12.4399" fill="#D2E5F1"/>
<path d="M10.0817 13.7906L8.37 15.3513C8.37 15.3513 8.23613 15.4529 8.08978 15.3892L8.41758 12.4902" fill="#B5CFE4"/>
</svg>
