<svg width="170" height="65" viewBox="0 0 170 65" fill="none" xmlns="http://www.w3.org/2000/svg">
<path d="M40.6937 44.875C38.4854 46.625 36.1312 47.9167 33.6312 48.75C31.1312 49.5833 28.4229 50 25.5062 50C18.5896 50 12.6937 47.5625 7.81875 42.6875C2.94375 37.8125 0.506248 31.9167 0.506248 25C0.506248 18.1042 2.94375 12.2188 7.81875 7.34375C12.7146 2.44792 18.6104 0 25.5062 0C32.3812 0 38.2667 2.44792 43.1625 7.34375C45.6208 9.80208 47.4542 12.4896 48.6625 15.4062C49.8917 18.3021 50.5062 21.5 50.5062 25C50.5062 27.9167 50.0896 30.625 49.2562 33.125C48.4229 35.625 47.1312 37.9792 45.3812 40.1875L49.5687 44.375C50.1937 45.0625 50.5062 45.8333 50.5062 46.6875C50.5062 47.1667 50.4229 47.6042 50.2562 48C50.0896 48.3958 49.85 48.75 49.5375 49.0625C49.2458 49.3542 48.8917 49.5833 48.475 49.75C48.0792 49.9167 47.6521 50 47.1937 50C46.2354 50 45.4437 49.6771 44.8187 49.0312L40.6937 44.875ZM31.5687 35.7812C30.9437 35.0521 30.6312 34.2708 30.6312 33.4375C30.6312 32.9792 30.7146 32.5521 30.8812 32.1562C31.0479 31.7396 31.2771 31.3854 31.5687 31.0938C31.8812 30.7812 32.2354 30.5417 32.6312 30.375C33.0271 30.2083 33.4646 30.125 33.9437 30.125C34.8604 30.125 35.6417 30.4479 36.2875 31.0938L40.6625 35.4375C42.8083 32.4167 43.8812 28.9375 43.8812 25C43.8812 19.9375 42.0896 15.6146 38.5062 12.0312C34.9021 8.42708 30.5687 6.625 25.5062 6.625C22.9229 6.625 20.5583 7.07292 18.4125 7.96875C16.2875 8.86458 14.3187 10.2188 12.5062 12.0312C10.6937 13.8438 9.33958 15.8125 8.44375 17.9375C7.56875 20.0625 7.13125 22.4167 7.13125 25C7.13125 30.0833 8.92292 34.4167 12.5062 38C16.0896 41.5833 20.4229 43.375 25.5062 43.375C29.4437 43.375 32.9333 42.3021 35.975 40.1562L31.5687 35.7812ZM72.7062 21.5312C71.1646 21.5312 69.7271 21.8229 68.3937 22.4062C67.0604 22.9896 65.9042 23.7812 64.925 24.7812C63.9458 25.7604 63.1646 26.9167 62.5812 28.25C62.0187 29.5833 61.7375 31 61.7375 32.5C61.7375 34 62.0187 35.4167 62.5812 36.75C63.1646 38.0833 63.9458 39.25 64.925 40.25C65.9042 41.2292 67.0604 42.0104 68.3937 42.5938C69.7271 43.1771 71.1646 43.4688 72.7062 43.4688C74.2271 43.4688 75.6542 43.1771 76.9875 42.5938C78.3208 42.0104 79.4771 41.2188 80.4562 40.2188C81.4562 39.2188 82.2375 38.0625 82.8 36.75C83.3833 35.4167 83.675 34 83.675 32.5C83.675 31 83.3833 29.5938 82.8 28.2812C82.2375 26.9479 81.4562 25.7812 80.4562 24.7812C79.4771 23.7812 78.3208 22.9896 76.9875 22.4062C75.6542 21.8229 74.2271 21.5312 72.7062 21.5312ZM83.675 46.75V46.125C82.1125 47.375 80.4146 48.3333 78.5812 49C76.7479 49.6667 74.7896 50 72.7062 50C67.8729 50 63.7479 48.2917 60.3312 44.875C56.9146 41.4583 55.2062 37.3333 55.2062 32.5C55.2062 27.6667 56.9146 23.5417 60.3312 20.125C63.7479 16.7083 67.8729 15 72.7062 15C77.4979 15 81.6229 16.7083 85.0812 20.125C88.4979 23.5417 90.2062 27.6667 90.2062 32.5V46.75C90.2062 47.6458 89.8833 48.4167 89.2375 49.0625C88.6125 49.6875 87.8521 50 86.9562 50C86.0396 50 85.2583 49.6875 84.6125 49.0625C83.9875 48.4167 83.675 47.6458 83.675 46.75ZM101.312 18.25V18.875C102.875 17.625 104.573 16.6667 106.406 16C108.24 15.3333 110.198 15 112.281 15C113.198 15 114.177 15.0625 115.219 15.1875C116.281 15.3125 117.25 15.5417 118.125 15.875C119.021 16.1875 119.76 16.625 120.344 17.1875C120.927 17.75 121.219 18.4792 121.219 19.375C121.219 19.8333 121.125 20.2604 120.938 20.6562C120.771 21.0521 120.542 21.4062 120.25 21.7188C119.958 22.0104 119.615 22.2396 119.219 22.4062C118.823 22.5729 118.396 22.6562 117.938 22.6562C117.542 22.6562 117.083 22.5417 116.562 22.3125C115.25 21.7917 113.823 21.5312 112.281 21.5312C110.76 21.5312 109.333 21.8229 108 22.4062C106.667 22.9688 105.5 23.75 104.5 24.75C103.521 25.7292 102.74 26.8854 102.156 28.2188C101.594 29.5521 101.312 30.9792 101.312 32.5V46.75C101.312 47.6458 100.99 48.4167 100.344 49.0625C99.7188 49.6875 98.9583 50 98.0625 50C97.1458 50 96.3646 49.6875 95.7188 49.0625C95.0938 48.4167 94.7812 47.6458 94.7812 46.75V18.25C94.7812 17.3542 95.0938 16.5938 95.7188 15.9688C96.3646 15.3229 97.1458 15 98.0625 15C98.9583 15 99.7188 15.3229 100.344 15.9688C100.99 16.5938 101.312 17.3542 101.312 18.25ZM135.606 8.78125C135.606 9.84375 135.231 10.75 134.481 11.5C133.731 12.25 132.825 12.625 131.762 12.625C130.7 12.625 129.794 12.25 129.044 11.5C128.294 10.75 127.919 9.84375 127.919 8.78125C127.919 7.71875 128.294 6.8125 129.044 6.0625C129.794 5.3125 130.7 4.9375 131.762 4.9375C132.825 4.9375 133.731 5.3125 134.481 6.0625C135.231 6.8125 135.606 7.71875 135.606 8.78125ZM135.012 18.2812V49.8438C135.012 51.9062 134.606 53.8542 133.794 55.6875C133.002 57.5208 131.919 59.125 130.544 60.5C129.169 61.875 127.565 62.9583 125.731 63.75C123.898 64.5625 121.95 64.9688 119.887 64.9688C118.95 64.9688 118.169 64.6562 117.544 64.0312C116.94 63.4062 116.637 62.625 116.637 61.6875C116.637 60.75 116.94 59.9688 117.544 59.3438C118.169 58.7396 118.95 58.4375 119.887 58.4375C121.075 58.4375 122.19 58.2083 123.231 57.75C124.273 57.3125 125.179 56.6979 125.95 55.9062C126.742 55.1354 127.367 54.2292 127.825 53.1875C128.283 52.1458 128.512 51.0312 128.512 49.8438V18.2812C128.512 17.3646 128.825 16.5938 129.45 15.9688C130.096 15.3229 130.867 15 131.762 15C132.658 15 133.419 15.3229 134.044 15.9688C134.69 16.5938 135.012 17.3646 135.012 18.2812ZM150.994 46.75L139.744 19.7188C139.535 19.2396 139.431 18.75 139.431 18.25C139.431 17.8125 139.515 17.3958 139.681 17C139.848 16.6042 140.077 16.2604 140.369 15.9688C140.66 15.6562 141.004 15.4167 141.4 15.25C141.796 15.0833 142.223 15 142.681 15C143.327 15 143.931 15.1875 144.494 15.5625C145.056 15.9167 145.483 16.4479 145.775 17.1562L154.556 38.125L163.337 17.0938C163.587 16.4688 163.942 15.9688 164.4 15.5938C164.879 15.1979 165.546 15 166.4 15C166.858 15 167.285 15.0833 167.681 15.25C168.077 15.4167 168.421 15.6562 168.712 15.9688C169.004 16.2604 169.233 16.6042 169.4 17C169.587 17.3958 169.681 17.8125 169.681 18.25C169.681 18.7083 169.567 19.1979 169.337 19.7188L151.369 62.8125C151.098 63.4583 150.681 63.9792 150.119 64.375C149.556 64.7917 148.942 65 148.275 65C147.337 65 146.556 64.6875 145.931 64.0625C145.327 63.4375 145.025 62.6562 145.025 61.7188C145.025 61.2188 145.129 60.7396 145.337 60.2812L150.994 46.75Z" fill="white"/>
</svg>
