<svg width="1288" height="1283" viewBox="0 0 1288 1283" fill="none" xmlns="http://www.w3.org/2000/svg">
<g clip-path="url(#clip0_236_625)">
<path d="M1075.64 413.936L1032.35 762.886L978.934 695.239C913.018 771.924 722.633 1004.63 413.404 933.032C293.642 905.324 221.449 845.091 178.588 777.714C198.287 842.222 231.2 901.922 275.231 953.014C319.263 1004.11 373.449 1045.47 434.341 1074.48C495.232 1103.49 561.496 1119.5 628.914 1121.5C696.333 1123.5 763.429 1111.45 825.934 1086.1C888.438 1060.75 944.981 1022.67 991.964 974.277C1038.95 925.884 1075.34 868.24 1098.83 805.014C1122.32 741.788 1132.39 674.365 1128.39 607.035C1124.4 539.705 1106.44 473.943 1075.64 413.936Z" fill="#FCB80E"/>
<path d="M360.152 495.817V750.17C386.067 750.224 411.963 748.742 437.703 745.732V473.033C411.43 479.107 385.536 486.715 360.152 495.817Z" fill="white"/>
<path d="M474.342 399.812V730.795C500.608 725.532 526.539 718.72 552.001 710.393V386.77C525.899 389.723 499.976 394.076 474.342 399.812Z" fill="white"/>
<path d="M643.566 302.291C624.95 302.291 606.55 303.049 588.475 304.51V675.432C615.141 663.299 641.039 649.546 666.025 634.249V302.67C658.611 302.453 651.089 302.291 643.566 302.291Z" fill="white"/>
<path d="M702.664 205.854V584.028C730.036 560.61 755.935 535.523 780.215 508.912V460.206L726.097 399.919L780.215 405.331V219.816C754.739 213.28 728.82 208.613 702.664 205.854V205.854Z" fill="white"/>
<path d="M156.941 674.621C234.763 830.804 579.059 879.239 847.699 475.576C840.068 466.755 797.045 417.67 797.045 417.67L1036.89 447.164L1012.76 680.141L978.772 634.411C978.772 634.411 814.092 870.797 596.972 903.971C311.88 947.265 186.327 770.03 167.224 735.719C163.219 712.611 156.941 674.621 156.941 674.621Z" fill="white"/>
<path d="M576.191 826.745C780.052 758.503 955.014 554.858 1033.97 446.785L797.045 417.67C797.045 417.67 840.339 466.755 847.699 475.576C579.059 879.239 234.763 830.804 156.941 674.621L162.353 708.119C259.116 854.453 417.193 879.997 576.191 826.745Z" fill="#FCB80E"/>
</g>
<path d="M1035.23 1151.33C978.343 1196.22 917.7 1229.35 853.3 1250.73C788.9 1272.11 719.133 1282.8 644 1282.8C465.827 1282.8 313.95 1220.27 188.37 1095.22C62.79 970.164 0 818.926 0 641.501C0 464.611 62.79 313.64 188.37 188.587C314.487 63.0004 466.363 0.207031 644 0.207031C821.1 0.207031 972.708 63.0004 1098.83 188.587C1162.15 251.648 1209.38 320.587 1240.51 395.405C1272.17 469.688 1288 551.72 1288 641.501C1288 716.319 1277.27 785.792 1255.8 849.922C1234.33 914.051 1201.06 974.44 1155.98 1031.09L1263.85 1138.5C1279.95 1156.14 1288 1175.91 1288 1197.82C1288 1210.12 1285.85 1221.34 1281.56 1231.49C1277.27 1241.65 1271.1 1250.73 1263.05 1258.75C1255.53 1266.23 1246.41 1272.11 1235.68 1276.38C1225.48 1280.66 1214.48 1282.8 1202.67 1282.8C1177.98 1282.8 1157.59 1274.51 1141.49 1257.95L1035.23 1151.33ZM872.5 990.389C856.4 971.685 848.35 951.644 848.35 930.268C848.35 918.511 850.497 907.555 854.79 897.402C859.083 886.713 864.987 877.628 872.5 870.147C880.55 862.13 889.673 855.985 899.87 851.709C910.067 847.434 921.337 845.296 933.68 845.296C957.293 845.296 977.418 853.58 994.055 870.147L1034.43 909.241C1089.7 831.752 1117.34 742.505 1117.34 641.501C1117.34 511.639 1071.19 400.749 978.88 308.83C886.037 216.377 774.41 170.15 644 170.15C577.453 170.15 516.542 181.64 461.265 204.62C406.525 227.599 355.81 262.336 309.12 308.83C262.43 355.324 227.547 405.826 204.47 460.336C181.93 514.846 170.66 575.234 170.66 641.501C170.66 771.898 216.813 883.055 309.12 974.974C401.427 1066.89 513.053 1112.85 644 1112.85C745.43 1112.85 835.322 1085.33 913.675 1030.29L872.5 990.389Z" fill="white"/>
<defs>
<clipPath id="clip0_236_625">
<rect width="972.44" height="916.212" fill="white" transform="translate(156.941 205.854)"/>
</clipPath>
</defs>
</svg>
